<?xml version="1.0" encoding="utf-8"?>
<!-- Generator: Adobe Illustrator 23.0.1, SVG Export Plug-In . SVG Version: 6.00 Build 0)  -->
<svg version="1.1" id="Capa_1" xmlns="http://www.w3.org/2000/svg" xmlns:xlink="http://www.w3.org/1999/xlink" x="0px" y="0px"
	 viewBox="0 0 223 222.5" style="enable-background:new 0 0 223 222.5;" xml:space="preserve">
<style type="text/css">
	.st0{fill-rule:evenodd;clip-rule:evenodd;fill:#FFFFFF;stroke:#3E3E3E;stroke-width:5;stroke-miterlimit:10;}
</style>
<g id="Close">
	<path class="st0" d="M136.1,110.5L212,34.6c7-7,7-18.3,0-25.3s-18.3-7-25.3,0l-75.9,75.9l-75.9-76c-7-7-18.3-7-25.3,0
		s-7,18.3,0,25.3l75.9,75.9l-76,76c-7,7-7,18.3,0,25.3s18.3,7,25.3,0l75.9-75.9l75.9,75.9c7,7,18.3,7,25.3,0s7-18.3,0-25.3
		L136.1,110.5z"/>
</g>
</svg>
