<?xml version="1.0" encoding="iso-8859-1"?>
<!-- Generator: Adobe Illustrator 18.1.1, SVG Export Plug-In . SVG Version: 6.00 Build 0)  -->
<svg xmlns="http://www.w3.org/2000/svg" xmlns:xlink="http://www.w3.org/1999/xlink" version="1.1" id="Capa_1" x="0px" y="0px" viewBox="0 0 32.078 32.078" style="enable-background:new 0 0 32.078 32.078;" xml:space="preserve" width="512px" height="512px">
<g>
	<path d="M31.925,8.833c-0.045-0.069-0.742-1.284-2.137-2.53c-1.386-1.241-3.541-2.531-6.373-2.531   c-2.836,0-4.965,1.293-6.33,2.542c-0.42,0.386-0.77,0.765-1.062,1.112c-0.301-0.349-0.667-0.732-1.098-1.122   C13.536,5.062,11.38,3.772,8.55,3.772c-2.839,0-4.966,1.293-6.328,2.542c-1.368,1.25-2.036,2.468-2.074,2.54L0,9.413v18.309   l2.193,0.559l0.005,0.004c0.029-0.063,0.621-1.079,1.7-2.027c1.092-0.956,2.611-1.838,4.651-1.842c2.094,0,3.691,0.945,4.814,1.944   c0.553,0.495,0.987,0.994,1.266,1.367c0.143,0.186,0.242,0.34,0.311,0.438c0.032,0.051,0.057,0.092,0.07,0.117   c0.004,0.011,0.012,0.018,0.012,0.022l0,0l0,0h0.005l2.036-0.018l0,0l0.002-0.004v-0.004c0.047-0.084,0.637-1.082,1.701-2.019   c1.096-0.956,2.613-1.838,4.648-1.842c2.096,0,3.693,0.945,4.82,1.944c0.556,0.495,0.978,0.994,1.26,1.367   c0.143,0.186,0.244,0.34,0.314,0.438c0.033,0.051,0.055,0.092,0.067,0.117c0.008,0.011,0.013,0.018,0.013,0.022h0.002l0,0   l2.188-0.581V9.413L31.925,8.833z M8.55,22.079H8.545c-2.751,0-4.839,1.221-6.201,2.432V9.743c0.24-0.368,0.764-1.094,1.554-1.794   C4.991,6.995,6.51,6.113,8.55,6.113c2.094,0,3.691,0.946,4.814,1.94c0.553,0.495,0.987,0.999,1.266,1.371   c0.098,0.126,0.18,0.243,0.236,0.331v14.812C13.481,23.341,11.349,22.079,8.55,22.079z M8.559,20.336H8.555   c-2.104,0-3.697,0.934-4.741,1.858V10.907c0.185-0.281,0.586-0.836,1.189-1.371C5.839,8.805,7,8.131,8.559,8.131   c1.6,0,2.82,0.722,3.681,1.482c0.422,0.379,0.754,0.763,0.968,1.048c0.073,0.098,0.135,0.188,0.177,0.253v11.323   C12.325,21.301,10.697,20.336,8.559,20.336z M23.6,20.076h-0.003c-2.104,0-3.698,0.934-4.74,1.859V10.647   c0.183-0.282,0.585-0.835,1.189-1.371c0.833-0.729,1.994-1.403,3.554-1.403c1.602,0,2.821,0.721,3.679,1.482   c0.426,0.377,0.757,0.762,0.969,1.046c0.074,0.098,0.137,0.189,0.181,0.255v11.321C27.369,21.042,25.738,20.076,23.6,20.076z    M29.736,24.565c-1.394-1.228-3.522-2.486-6.321-2.486c-2.752-0.004-4.842,1.221-6.205,2.432V9.743   c0.242-0.364,0.767-1.094,1.557-1.794c1.096-0.954,2.613-1.836,4.648-1.836c2.096,0,3.693,0.946,4.82,1.94   c0.556,0.495,0.978,0.999,1.26,1.371c0.099,0.126,0.178,0.243,0.241,0.331V24.565z" fill="#191919"/>
</g>
<g>
</g>
<g>
</g>
<g>
</g>
<g>
</g>
<g>
</g>
<g>
</g>
<g>
</g>
<g>
</g>
<g>
</g>
<g>
</g>
<g>
</g>
<g>
</g>
<g>
</g>
<g>
</g>
<g>
</g>
</svg>
