<?xml version="1.0"?>
<svg xmlns="http://www.w3.org/2000/svg" height="512px" viewBox="-23 0 490 490.01698" width="512px"><path d="m63.878906 316.761719h127.257813c3.867187 0 7-3.132813 7-7 0-3.867188-3.132813-7-7-7h-127.257813c-3.867187 0-7 3.132812-7 7 0 3.867187 3.132813 7 7 7zm0 0" fill="#FFFFFF"/><path d="m148.535156 249.355469h48.9375c3.867188 0 7-3.132813 7-7v-130.199219c0-3.867188-3.132812-7-7-7h-48.9375c-3.867187 0-7 3.132812-7 7v130.199219c0 3.867187 3.132813 7 7 7zm7-130.199219h34.9375v116.199219h-34.9375zm0 0" fill="#FFFFFF"/><path d="m65.429688 249.355469h48.941406c3.863281 0 7-3.132813 7-7v-56.332031c0-3.863282-3.136719-7-7-7h-48.941406c-3.863282 0-7 3.136718-7 7v56.332031c0 3.867187 3.136718 7 7 7zm7-56.328125h34.941406v42.328125h-34.941406zm0 0" fill="#FFFFFF"/><path d="m231.640625 249.355469h48.9375c3.867187 0 7-3.132813 7-7v-84.03125c0-3.863281-3.132813-7-7-7h-48.9375c-3.867187 0-7 3.136719-7 7v84.03125c0 3.867187 3.132813 7 7 7zm7-84.03125h34.9375v70.03125h-34.9375zm0 0" fill="#FFFFFF"/><path d="m346.003906 255.0625v-146.476562c0-1.820313-.710937-3.570313-1.980468-4.875l-98.605469-101.585938c-1.320313-1.359375-3.132813-2.125-5.023438-2.125h-196.449219c-24.253906.0273438-43.9101558 19.679688-43.9374995 43.933594v346.976562c.0273437 24.253906 19.6835935 43.910156 43.9374995 43.9375h181.625c28.988282 45.910156 85.496094 66.210938 137.070313 49.242188s84.992187-66.855469 81.058594-121.007813c-3.933594-54.152343-44.210938-98.683593-97.695313-108.019531zm-98.609375-230.800781 75.058594 77.324219h-63.589844c-6.332031-.007813-11.460937-5.136719-11.46875-11.46875zm-203.449219 396.585937c-16.527343-.019531-29.917968-13.410156-29.9375-29.9375v-346.976562c.019532-16.523438 13.410157-29.914063 29.9375-29.933594h189.449219v76.117188c.019531 14.058593 11.410157 25.449218 25.46875 25.46875h73.144531v137.890624c-2.109374-.113281-4.230468-.171874-6.367187-.171874-57.960937.074218-107.371094 42.046874-116.816406 99.234374h-144.945313c-3.867187 0-7 3.136719-7 7 0 3.867188 3.132813 7 7 7h143.5c-.074218 1.699219-.117187 3.414063-.117187 5.136719-.019531 16.972657 3.632812 33.746094 10.707031 49.171875zm281.6875 55.199219c-57.644531 0-104.375-46.730469-104.371093-104.375 0-57.644531 46.730469-104.375 104.375-104.371094 57.644531 0 104.375 46.730469 104.371093 104.375-.0625 57.617188-46.757812 104.308594-104.375 104.375zm0 0" fill="#FFFFFF"/><path d="m321.132812 316.980469c12.699219.015625 22.988282 10.304687 23 23 0 3.867187 3.136719 7 7 7 3.867188 0 7-3.132813 7-7-.023437-17.722657-12.597656-32.949219-30-36.324219v-10.15625c0-3.867188-3.132812-7-7-7-3.863281 0-7 3.132812-7 7v10.15625c-18.714843 3.617188-31.617187 20.863281-29.804687 39.84375 1.808594 18.976562 17.742187 33.46875 36.804687 33.480469 12.558594.128906 22.691407 10.304687 22.765626 22.859375.078124 12.554687-9.929688 22.851562-22.480469 23.136718-.09375 0-.1875-.015624-.285157-.015624-.09375 0-.1875.011718-.28125.015624-12.585937-.167968-22.703124-10.410156-22.71875-22.996093 0-3.863281-3.132812-7-7-7-3.863281 0-7 3.136719-7 7 .027344 17.726562 12.601563 32.953125 30 36.328125v11.523437c0 3.863281 3.136719 7 7 7 3.867188 0 7-3.136719 7-7v-11.523437c18.71875-3.617188 31.621094-20.867188 29.808594-39.84375-1.8125-18.976563-17.742187-33.46875-36.808594-33.484375-12.699218 0-23-10.296875-23-23 0-12.699219 10.300782-23 23-23zm0 0" fill="#FFFFFF"/></svg>
