<?xml version="1.0"?>
<svg xmlns="http://www.w3.org/2000/svg" height="512px" viewBox="-3 0 512 512.00064" width="512px"><path d="m500.265625 289.714844-12.097656-12.015625c-13.328125-13.316407-34.929688-13.316407-48.257813 0l-72.976562 73.019531v-9.386719c0-14.136719-11.460938-25.597656-25.597656-25.597656h-221.867188c-2.265625 0-4.433594.898437-6.035156 2.5l-28.101563 28.101563v-13.535157c0-4.714843-3.820312-8.535156-8.53125-8.535156h-68.265625c-4.714844 0-8.535156 3.820313-8.535156 8.535156v170.667969c0 4.710938 3.820312 8.53125 8.535156 8.53125h68.265625c4.710938 0 8.535157-3.820312 8.535157-8.53125v-13.535156l37.664062-37.667969h235.402344c2.261718 0 4.433594-.898437 6.03125-2.5l135.851562-135.851563c6.664063-6.6875 6.664063-17.507812 0-24.199218zm-432 205.21875h-51.199219v-153.601563h51.199219zm286.601563-59.734375h-235.398438c-2.265625 0-4.433594.902343-6.035156 2.5l-28.101563 28.101562v-95.335937l37.667969-37.664063h218.335938c4.710937 0 8.53125 3.820313 8.53125 8.53125v25.601563h-110.933594v17.066406h119.46875c4.710937 0 8.53125-3.820312 8.53125-8.535156l85.050781-85.699219c6.667969-6.664063 17.46875-6.664063 24.132813 0l12.101562 12.066406zm0 0" fill="#FFFFFF"/><path d="m204.800781 247.46875c-4.714843 0-8.535156-3.824219-8.535156-8.535156h-17.066406c.046875 10.808594 6.875 20.425781 17.066406 24.03125v10.101562h17.066406v-10.101562c13.304688-4.6875 20.292969-19.269532 15.605469-32.574219-3.605469-10.238281-13.285156-17.078125-24.136719-17.058594-4.714843 0-8.535156-3.820312-8.535156-8.53125 0-4.714843 3.820313-8.535156 8.535156-8.535156 4.710938 0 8.53125 3.820313 8.53125 8.535156h17.066407c-.042969-10.808593-6.875-20.425781-17.066407-24.03125v-10.101562h-17.066406v10.101562c-13.304687 4.6875-20.289063 19.269531-15.601563 32.574219 3.605469 10.238281 13.285157 17.078125 24.136719 17.054688 4.710938 0 8.535157 3.820312 8.535157 8.535156 0 4.710937-3.824219 8.535156-8.535157 8.535156zm0 0" fill="#FFFFFF"/><path d="m204.800781 298.667969c42.414063 0 76.800781-34.386719 76.800781-76.800781 0-42.414063-34.386718-76.800782-76.800781-76.800782-42.414062 0-76.800781 34.386719-76.800781 76.800782.050781 42.394531 34.40625 76.746093 76.800781 76.800781zm0-136.535157c32.988281 0 59.734375 26.742188 59.734375 59.734376 0 32.988281-26.746094 59.730468-59.734375 59.730468s-59.734375-26.742187-59.734375-59.730468c.039063-32.976563 26.761719-59.695313 59.734375-59.734376zm0 0" fill="#FFFFFF"/><path d="m238.933594 213.332031h17.066406v17.066407h-17.066406zm0 0" fill="#FFFFFF"/><path d="m153.601562 213.332031h17.066407v17.066407h-17.066407zm0 0" fill="#FFFFFF"/><path d="m375.46875 187.734375c-4.714844 0-8.535156-3.820313-8.535156-8.535156h-17.066406c.042968 10.808593 6.875 20.425781 17.066406 24.03125v10.101562h17.066406v-10.101562c13.304688-4.6875 20.292969-19.269531 15.605469-32.574219-3.605469-10.238281-13.285157-17.078125-24.140625-17.054688-4.710938 0-8.53125-3.820312-8.53125-8.535156 0-4.710937 3.820312-8.535156 8.53125-8.535156 4.714844 0 8.535156 3.824219 8.535156 8.535156h17.066406c-.042968-10.808594-6.875-20.425781-17.066406-24.03125v-10.101562h-17.066406v10.101562c-13.304688 4.6875-20.289063 19.269532-15.605469 32.574219 3.605469 10.238281 13.289063 17.078125 24.140625 17.058594 4.710938 0 8.53125 3.820312 8.53125 8.53125 0 4.714843-3.820312 8.535156-8.53125 8.535156zm0 0" fill="#FFFFFF"/><path d="m375.46875 238.933594c42.390625-.050782 76.746094-34.40625 76.796875-76.800782v-85.332031h-17.066406v37.171875c-26.492188-32.992187-74.714844-38.257812-107.703125-11.761718-4.335938 3.480468-8.28125 7.425781-11.761719 11.761718v-62.773437h-17.066406v110.933593c.050781 42.394532 34.40625 76.75 76.800781 76.800782zm0-136.535156c32.988281 0 59.730469 26.746093 59.730469 59.734374 0 32.988282-26.742188 59.734376-59.730469 59.734376-32.992188 0-59.734375-26.746094-59.734375-59.734376.039063-32.972656 26.757813-59.695312 59.734375-59.734374zm0 0" fill="#FFFFFF"/><path d="m409.601562 153.601562h17.066407v17.066407h-17.066407zm0 0" fill="#FFFFFF"/><path d="m324.269531 153.601562h17.066407v17.066407h-17.066407zm0 0" fill="#FFFFFF"/><path d="m145.066406 34.132812h17.066406v85.332032h-17.066406zm0 0" fill="#FFFFFF"/><path d="m145.066406 0h17.066406v17.066406h-17.066406zm0 0" fill="#FFFFFF"/><path d="m196.265625 76.800781h17.066406v51.199219h-17.066406zm0 0" fill="#FFFFFF"/><path d="m196.265625 42.667969h17.066406v17.066406h-17.066406zm0 0" fill="#FFFFFF"/><path d="m247.46875 51.199219h17.066406v51.203125h-17.066406zm0 0" fill="#FFFFFF"/><path d="m247.46875 17.066406h17.066406v17.066406h-17.066406zm0 0" fill="#FFFFFF"/><path d="m298.667969 17.066406h17.066406v17.066406h-17.066406zm0 0" fill="#FFFFFF"/><path d="m366.933594 0h17.066406v17.066406h-17.066406zm0 0" fill="#FFFFFF"/><path d="m366.933594 34.132812h17.066406v34.132813h-17.066406zm0 0" fill="#FFFFFF"/><path d="m435.199219 42.667969h17.066406v17.066406h-17.066406zm0 0" fill="#FFFFFF"/></svg>
