<?xml version="1.0" encoding="iso-8859-1"?>
<!-- Generator: Adobe Illustrator 19.0.0, SVG Export Plug-In . SVG Version: 6.00 Build 0)  -->
<svg xmlns="http://www.w3.org/2000/svg" xmlns:xlink="http://www.w3.org/1999/xlink" version="1.1" id="Layer_1" x="0px" y="0px" viewBox="0 0 512.005 512.005" style="enable-background:new 0 0 512.005 512.005;" xml:space="preserve" width="512px" height="512px">
<g>
	<g>
		<g>
			<path d="M440.878,64.609l-181.333-64c-2.292-0.813-4.792-0.813-7.083,0l-181.333,64c-4.271,1.51-7.125,5.542-7.125,10.063v128     c0,165.646,24.563,226.188,187.188,308.188c1.521,0.76,3.167,1.146,4.812,1.146c1.646,0,3.292-0.385,4.813-1.146     c162.625-82,187.188-142.542,187.188-308.188v-128C448.003,70.151,445.148,66.12,440.878,64.609z M426.669,202.672     c0,158.656-20.229,210.01-170.667,286.708C105.565,412.682,85.336,361.328,85.336,202.672V82.224l170.667-60.24l170.667,60.24     V202.672z" fill="#FFFFFF"/>
			<path d="M146.211,216.464c-4.167-4.167-10.917-4.167-15.083,0c-4.167,4.167-4.167,10.917,0,15.083l85.333,85.333     c2.083,2.083,4.813,3.125,7.542,3.125s5.458-1.042,7.542-3.125l149.333-149.333c4.167-4.167,4.167-10.917,0-15.083     c-4.167-4.167-10.917-4.167-15.083,0L224.003,294.255L146.211,216.464z" fill="#FFFFFF"/>
		</g>
	</g>
</g>
<g>
</g>
<g>
</g>
<g>
</g>
<g>
</g>
<g>
</g>
<g>
</g>
<g>
</g>
<g>
</g>
<g>
</g>
<g>
</g>
<g>
</g>
<g>
</g>
<g>
</g>
<g>
</g>
<g>
</g>
</svg>
